<?xml version="1.0" encoding="UTF-8" standalone="no"?>
<svg
   version="1.1"
   id="svg824"
   sodipodi:docname="icon.svg"
   width="512"
   height="512"
   inkscape:version="1.1.1 (c3084ef, 2021-09-22)"
   xmlns:inkscape="http://www.inkscape.org/namespaces/inkscape"
   xmlns:sodipodi="http://sodipodi.sourceforge.net/DTD/sodipodi-0.dtd"
   xmlns="http://www.w3.org/2000/svg"
   xmlns:svg="http://www.w3.org/2000/svg">
  <defs
     id="defs828" />
  <sodipodi:namedview
     id="namedview826"
     pagecolor="#ffffff"
     bordercolor="#666666"
     borderopacity="1.0"
     inkscape:pageshadow="2"
     inkscape:pageopacity="0.0"
     inkscape:pagecheckerboard="false"
     showgrid="false"
     inkscape:zoom="0.46804134"
     inkscape:cx="158.10569"
     inkscape:cy="143.14975"
     inkscape:window-width="1440"
     inkscape:window-height="847"
     inkscape:window-x="0"
     inkscape:window-y="25"
     inkscape:window-maximized="1"
     inkscape:current-layer="svg824" />
  <circle
     style="fill:#444444;fill-opacity:1;stroke:none;stroke-width:7.25267;stroke-miterlimit:4;stroke-dasharray:none;stroke-opacity:1"
     id="path2260"
     cx="255.35765"
     cy="260.59549"
     r="188.89732" />
  <g
     id="g2534"
     transform="translate(-1.8966692,-2.5462355)">
    <path
       style="fill:#ffad16;fill-opacity:1;stroke:none;stroke-width:5;stroke-miterlimit:4;stroke-dasharray:none;stroke-opacity:1"
       d="M 235.10904,404.87176 C 159.23597,397.63164 102.18893,337.26441 99.01413,260.85605 95.76028,182.5448 150.13235,115.63873 230.79117,98.70135 c 14.22587,-2.98726 43.52027,-4.02682 58.22886,-2.06635 31.58065,4.2093 61.28081,16.20864 85.03327,34.35478 7.41223,5.6627 7.6297,5.99909 5.44161,8.41691 -1.25355,1.38515 -2.9369,2.51847 -3.74076,2.51847 -0.80387,0 -5.68591,-3.1779 -10.84897,-7.06199 -11.80463,-8.88046 -32.53462,-19.54688 -46.50901,-23.93081 -36.24675,-11.37103 -76.34563,-10.43861 -110.10702,2.56032 -21.59999,8.31649 -38.24216,19.52139 -55.33504,37.25619 -28.57447,29.64756 -42.51802,67.30391 -40.72326,109.97839 2.31969,55.15597 33.76042,102.45246 81.81776,123.079 52.64456,22.59541 113.97631,10.86151 150.28353,-28.75199 20.52727,-22.39657 30.40385,-46.75068 31.60422,-77.93112 1.43093,-37.16976 -8.52084,-63.43477 -33.37082,-88.07332 -13.7433,-13.62637 -28.22813,-22.12413 -46.75201,-27.42783 -13.85234,-3.96617 -42.96177,-4.27881 -56.38492,-0.60559 -34.34093,9.39733 -61.28905,36.32507 -69.99374,69.94081 -3.03933,11.73726 -2.97486,34.99836 0.12884,46.48658 8.18246,30.28703 30.77273,53.11424 59.8456,60.47329 10.20067,2.58203 29.88454,2.56908 39.84863,-0.0262 32.82262,-8.54922 54.7236,-38.53065 52.198,-71.4567 -1.37065,-17.86873 -9.44845,-33.27167 -22.47966,-42.86469 -10.52586,-7.74876 -19.06159,-10.45791 -32.97094,-10.46469 -9.60497,-0.005 -12.53735,0.56214 -19.59699,3.78806 -8.5315,3.8985 -16.93257,11.6446 -20.85437,19.22855 -8.15078,15.76185 -3.44688,38.11759 9.62699,45.75314 15.05428,8.79217 33.48205,2.81588 33.48205,-10.85854 0,-8.90891 -5.56106,-13.1831 -11.95608,-9.18934 -2.1544,1.34544 -3.00446,1.24877 -4.799,-0.54577 -8.18223,-8.18222 5.76815,-20.70946 19.07262,-17.12693 21.27554,5.72891 25.69879,35.88981 7.5946,51.78549 -8.49341,7.45731 -15.64415,9.97497 -28.51586,10.03997 -9.9654,0.0504 -12.31195,-0.42924 -19.93255,-4.07361 -17.51908,-8.37808 -27.94722,-24.12878 -28.97805,-43.76856 -1.14326,-21.78191 7.8812,-39.53479 26.2896,-51.71677 11.82734,-7.82689 19.63112,-10.30864 34.66919,-11.02546 23.55479,-1.12279 40.32519,5.2206 56.35331,21.31558 15.03752,15.10026 21.9776,32.20032 21.93976,54.05866 -0.0409,23.60927 -7.34686,40.9682 -24.4069,57.99045 -19.25725,19.21458 -43.61483,28.27578 -71.85979,26.73233 -40.72156,-2.22523 -76.23156,-29.14066 -88.91522,-67.39488 -18.1733,-54.81106 10.20552,-112.69153 66.09118,-134.7973 14.57249,-5.76421 26.41382,-7.8652 44.69551,-7.93029 23.96155,-0.0853 44.81726,5.37281 64.3565,16.84263 48.40532,28.41465 71.74653,86.55632 57.18769,142.45149 -16.61624,63.79404 -82.20613,106.91009 -152.44049,100.20803 z"
       id="path2003" />
    <path
       style="fill:#ffad16;fill-opacity:1;stroke:none;stroke-width:5;stroke-miterlimit:4;stroke-dasharray:none;stroke-opacity:1"
       d="m 279.3996,121.41169 c 75.87307,7.24012 132.92011,67.60735 136.09491,144.01571 3.25385,78.31125 -51.11822,145.21732 -131.77704,162.1547 -14.22587,2.98726 -43.52027,4.02682 -58.22886,2.06635 -31.58065,-4.2093 -61.28081,-16.20864 -85.03327,-34.35478 -7.41223,-5.6627 -7.6297,-5.99909 -5.44161,-8.41691 1.25355,-1.38515 2.9369,-2.51847 3.74076,-2.51847 0.80387,0 5.68591,3.1779 10.84897,7.06199 11.80463,8.88046 32.53462,19.54688 46.50901,23.93081 36.24675,11.37103 76.34563,10.43861 110.10702,-2.56032 21.59999,-8.31649 38.24216,-19.52139 55.33504,-37.25619 28.57447,-29.64756 42.51802,-67.30391 40.72326,-109.97839 -2.31969,-55.15597 -33.76042,-102.45246 -81.81776,-123.079 -52.64456,-22.59541 -113.97631,-10.86151 -150.28353,28.75199 -20.52727,22.39657 -30.40385,46.75068 -31.60422,77.93112 -1.43093,37.16976 8.52084,63.43477 33.37082,88.07332 13.7433,13.62637 28.22813,22.12413 46.75201,27.42783 13.85234,3.96617 42.96177,4.27881 56.38492,0.60559 34.34093,-9.39733 61.28905,-36.32507 69.99374,-69.94081 3.03933,-11.73726 2.97486,-34.99836 -0.12884,-46.48658 -8.18246,-30.28703 -30.77273,-53.11424 -59.8456,-60.47329 -10.20067,-2.58203 -29.88454,-2.56908 -39.84863,0.0262 -32.82262,8.54922 -54.7236,38.53065 -52.198,71.4567 1.37065,17.86873 9.44845,33.27167 22.47966,42.86469 10.52586,7.74876 19.06159,10.45791 32.97094,10.46469 9.60497,0.005 12.53735,-0.56214 19.59699,-3.78806 8.5315,-3.8985 16.93257,-11.6446 20.85437,-19.22855 8.15078,-15.76185 3.44688,-38.11759 -9.62699,-45.75314 -15.05428,-8.79217 -33.48205,-2.81588 -33.48205,10.85854 0,8.90891 5.56106,13.1831 11.95608,9.18934 2.1544,-1.34544 3.00446,-1.24877 4.799,0.54577 8.18223,8.18222 -5.76815,20.70946 -19.07262,17.12693 -21.27554,-5.72891 -25.69879,-35.88981 -7.5946,-51.78549 8.49341,-7.45731 15.64415,-9.97497 28.51586,-10.03997 9.9654,-0.0504 12.31195,0.42924 19.93255,4.07361 17.51908,8.37808 27.94722,24.12878 28.97805,43.76856 1.14326,21.78191 -7.8812,39.53479 -26.2896,51.71677 -11.82734,7.82689 -19.63112,10.30864 -34.66919,11.02546 -23.55479,1.12279 -40.32519,-5.2206 -56.35331,-21.31558 -15.03752,-15.10026 -21.9776,-32.20032 -21.93976,-54.05866 0.0409,-23.60927 7.34686,-40.9682 24.4069,-57.99045 19.25725,-19.21458 43.61483,-28.27578 71.85979,-26.73233 40.72156,2.22523 76.23156,29.14066 88.91522,67.39488 18.1733,54.81106 -10.20552,112.69153 -66.09118,134.7973 -14.57249,5.76421 -26.41382,7.8652 -44.69551,7.93029 -23.96155,0.0853 -44.81726,-5.37281 -64.3565,-16.84263 C 135.74148,335.65658 112.40027,277.51491 126.95911,221.61974 143.57535,157.8257 209.16524,114.70965 279.3996,121.41171 Z"
       id="path2530" />
  </g>
</svg>
